<?xml version="1.0" standalone="no"?>
<!DOCTYPE svg PUBLIC "-//W3C//DTD SVG 1.1//EN" "http://www.w3.org/Graphics/SVG/1.1/DTD/svg11.dtd">
<svg t="1623902131453" class="icon" viewBox="0 0 1024 1024" version="1.1" xmlns="http://www.w3.org/2000/svg" p-id="1214" xmlns:xlink="http://www.w3.org/1999/xlink" width="200" height="200">
  <defs>
    <style type="text/css">
    </style>
  </defs>
  <path d="M798.6432 173.312a305.9968 305.9968 0 0 1-33.6896 84.096C610.816 204.16 624.5376 27.6736 624.5376 27.6736c-229.5296-15.4368-272.128 158.8992-272.128 158.8992C308.9408 174.3872 296.96 121.344 296.96 121.344a326.016 326.016 0 0 0-118.6816 272.5632 404.224 404.224 0 0 1-70.4-60.416A689.5104 689.5104 0 0 0 76.8 530.432c3.2256 237.056 197.6832 426.752 434.688 424.064 237.056 2.6624 431.5136-187.0336 434.7392-424.064a472.5248 472.5248 0 0 0-147.584-357.12z m-190.848 637.4912a188.0064 188.0064 0 0 1-190.4128-185.3952 301.312 301.312 0 0 1 13.696-86.9376c9.1392 10.5984 19.5072 20.0704 30.8736 28.2368 11.3664 8.192-20.224-99.7632 40.192-150.6048 0 0 16.9728 54.528 35.8912 59.9808 0 0 29.9776-121.9328 130.4064-115.2 0 0-17.152 122.8032 49.9968 146.0736 6.7072-11.4688 11.6992-23.8336 14.7712-36.736a206.4896 206.4896 0 0 1 65.2032 156.0576 188.0064 188.0064 0 0 1-190.6176 184.5248z"
        fill="#d81e06" p-id="1215">
  </path>
</svg>
